HIERARCHY
ROOT root     
{
	OFFSET 0.0000 0.0000 0.0000
	CHANNELS 6 Xposition Yposition Zposition Zrotation Yrotation Xrotation
	JOINT pelvis   
	{
		OFFSET 0.0000 0.0000 0.0000
		CHANNELS 3 Zrotation Yrotation Xrotation
		JOINT thorax   
		{
			OFFSET 0.0000 23.0750 -5.0000
			CHANNELS 3 Zrotation Yrotation Xrotation
			JOINT rclavicle
			{
				OFFSET 0.0000 28.0009 0.0000
				CHANNELS 3 Zrotation Yrotation Xrotation
				JOINT rhumerus 
				{
					OFFSET -18.5725 5.5939 0.0000
					CHANNELS 3 Zrotation Yrotation Xrotation
					JOINT rradius  
					{
						OFFSET -24.8459 0.0000 0.0000
						CHANNELS 3 Zrotation Yrotation Xrotation
						JOINT rhand    
						{
							OFFSET -24.5477 0.0000 0.0000
							CHANNELS 3 Zrotation Yrotation Xrotation
							End Site
							{
								OFFSET -8.1826 0.0000 0.0000
							}
						}
					}
				}
			}
			JOINT lclavicle
			{
				OFFSET 0.0000 28.0009 0.0000
				CHANNELS 3 Zrotation Yrotation Xrotation
				JOINT lhumerus 
				{
					OFFSET 18.5725 5.5939 0.0000
					CHANNELS 3 Zrotation Yrotation Xrotation
					JOINT lradius  
					{
						OFFSET 24.8459 0.0000 0.0000
						CHANNELS 3 Zrotation Yrotation Xrotation
						JOINT lhand    
						{
							OFFSET 24.5477 0.0000 0.0000
							CHANNELS 3 Zrotation Yrotation Xrotation
							End Site
							{
								OFFSET 8.1826 0.0000 0.0000
							}
						}
					}
				}
			}
			JOINT head     
			{
				OFFSET 0.0000 35.2030 0.0000
				CHANNELS 3 Zrotation Yrotation Xrotation
				End Site
				{
					OFFSET 0.0000 11.7343 0.0000
				}
			}
		}
		JOINT rfemur   
		{
			OFFSET -8.2817 0.0000 0.0000
			CHANNELS 3 Zrotation Yrotation Xrotation
			JOINT rtibia   
			{
				OFFSET 0.0000 -43.3627 0.0000
				CHANNELS 3 Zrotation Yrotation Xrotation
				JOINT rfoot    
				{
					OFFSET 0.0000 -38.2947 0.0000
					CHANNELS 3 Zrotation Yrotation Xrotation
					JOINT rtoes    
					{
						OFFSET 0.0000 0.0000 16.6054
						CHANNELS 3 Zrotation Yrotation Xrotation
						End Site
						{
							OFFSET 0.0000 0.0000 5.5351
						}
					}
				}
			}
		}
		JOINT lfemur   
		{
			OFFSET 8.2817 0.0000 0.0000
			CHANNELS 3 Zrotation Yrotation Xrotation
			JOINT ltibia   
			{
				OFFSET 0.0000 -43.3627 0.0000
				CHANNELS 3 Zrotation Yrotation Xrotation
				JOINT lfoot    
				{
					OFFSET 0.0000 -38.2947 0.0000
					CHANNELS 3 Zrotation Yrotation Xrotation
					JOINT ltoes    
					{
						OFFSET 0.0000 0.0000 16.6054
						CHANNELS 3 Zrotation Yrotation Xrotation
						End Site
						{
							OFFSET 0.0000 0.0000 5.5351
						}
					}
				}
			}
		}
	}
}
MOTION
Frames: 23
Frame Time: .0333333
25.559 86.767 -4.016 -169.11 24.9608 -152.341 0 -0 0 15.7449 -16.2835 -11.3139 24.283 -14.7344 2.26076e-05 49.8889 -20.4744 -17.7959 -0 69.0548 -0 6.34396 -4.40576 -0.244301 -19.8929 11.0192 4.33235e-06 -57.6011 -35.341 42.3726 -180 -80.9428 180 4.14964 -2.50881 -0.0908982 1.58987 26.4299 -8.24496 3.30925 -3.64826 -34.0126 -0 -0 14.187 -1.33838e-06 -1.59313 10.757 -0.297397 3.16697e-06 -61.2651 -1.45018 -35.1288 -2.79979 -0 -0 15.485 1.85991e-05 -3.42847 15.5948 179.077 2.7887e-09 -0.0553995 
26.333 86.61 -4.8775 -169.092 24.034 -152.569 0 -0 0 16.2202 -16.4129 -11.5907 24.4167 -14.659 0.000113945 49.7911 -20.591 -18.2468 -9.74282e-07 68.8079 -6.67195e-07 5.69087 -4.1827 -0.208004 -19.7578 11.193 -6.61295e-05 -57.1808 -35.1559 41.6983 180 -78.9705 180 4.27531 -2.56195 -0.0956015 1.7213 26.3225 -7.89222 4.05019 -3.99566 -33.6617 -0 -0 12.7126 2.74056e-07 -0.140597 11.5566 -0.0281999 -2.68488e-07 -62.7385 -1.5557 -34.4669 -1.78424 -0 -0 15.6247 -5.16173e-07 -3.70974 15.9491 -1.0207 -5.32667e-08 -0.240903 
27.099 86.423 -5.7654 -169.094 23.2033 -152.827 0 -0 0 16.65 -16.5138 -11.8677 24.543 -14.5774 -5.91056e-05 49.6609 -20.6194 -18.6191 -9.3064e-07 68.5674 -1.36511e-06 5.09385 -3.98053 -0.177103 -19.6601 11.349 1.38429e-05 -56.4984 -34.8397 40.8099 180 -76.977 180 4.41309 -2.6127 -0.100699 1.74643 26.2194 -7.51027 4.6714 -4.22156 -33.3308 -0 -0 11.6535 7.28173e-07 1.23345 12.2741 0.2623 -6.64562e-06 -63.6262 -1.70156 -33.6821 -0.80338 -0 -0 15.8768 -2.48775e-05 -3.95226 16.2476 -1.1074 7.59089e-08 -0.743801 
27.856 86.21 -6.6763 -169.112 22.4666 -153.103 0 -0 0 17.0461 -16.5766 -12.1477 24.6593 -14.4955 -7.74576e-05 49.5016 -20.5574 -18.9173 -0 68.3366 -0 4.56659 -3.78699 -0.151 -19.6142 11.481 -2.24071e-05 -55.5578 -34.3857 39.7071 -180 -74.9859 180 4.54217 -2.66161 -0.105599 1.65054 26.1185 -7.11093 5.14844 -4.29266 -33.0334 -0 -0 11.052 8.33517e-06 2.42866 12.8227 0.539303 2.50772e-06 -63.8699 -1.86967 -32.7615 0.121784 -0 -0 16.2449 8.32413e-06 -4.17374 16.5384 -1.19007 4.84069e-07 -1.76337 
28.599 85.973 -7.6059 -169.141 21.8231 -153.386 0 -0 0 17.4195 -16.5881 -12.4352 24.7696 -14.4145 -0.000222216 49.3027 -20.4117 -19.1394 -6.41343e-07 68.1145 -9.48787e-07 4.11259 -3.58626 -0.128801 -19.6293 11.5865 9.09758e-05 -54.3786 -33.789 38.399 180 -73.0167 180 4.64189 -2.70858 -0.109799 1.42007 26.0233 -6.70612 5.46809 -4.18777 -32.7893 -0 -0 10.9412 6.67892e-06 3.36169 13.1182 0.763793 4.72919e-06 -63.4442 -2.04009 -31.6786 0.962389 -0 -0 16.7383 4.56953e-06 -4.40948 16.8599 -1.28125 -2.23632e-06 -3.35455 
29.325 85.717 -8.5514 -169.174 21.2726 -153.669 0 -0 0 17.7826 -16.5391 -12.7278 24.876 -14.3336 2.84921e-05 49.0577 -20.1841 -19.2802 -9.41413e-07 67.9035 -6.33851e-07 3.72582 -3.36047 -0.1093 -19.7134 11.6673 -4.51812e-05 -52.9858 -33.0467 36.899 180 -71.0895 -180 4.69371 -2.75273 -0.112802 1.04376 25.9373 -6.31085 5.6331 -3.90001 -32.6129 -0 -0 11.3415 -1.6377e-05 3.98026 13.087 0.902588 2.43507e-06 -62.3444 -2.19673 -30.404 1.69997 -0 -0 17.3619 -1.81512e-05 -4.69115 17.2786 -1.39616 3.22131e-06 -5.75953 
30.033 85.445 -9.5106 -169.206 20.8162 -153.946 0 -0 0 18.1395 -16.4221 -13.0173 24.985 -14.2538 -2.29772e-05 48.7617 -19.8757 -19.3324 -0 67.7001 -0 3.39037 -3.09369 -0.0915984 -19.8692 11.7261 -5.94364e-05 -51.4149 -32.1551 35.2291 180 -69.2366 -180 4.68377 -2.79169 -0.114199 0.516671 25.8611 -5.93916 5.66086 -3.44964 -32.5135 -0 -0 12.2584 7.64168e-08 4.27792 12.6799 0.940693 -3.39615e-06 -60.6154 -2.32802 -28.9059 2.31814 -0 -0 18.1247 -1.77629e-05 -5.05149 17.8291 -1.55025 1.31345e-06 -8.83579 
30.72 85.159 -10.483 -169.243 20.4517 -154.225 0 -0 0 18.486 -16.2391 -13.2905 25.1041 -14.1696 1.79582e-05 48.4077 -19.4866 -19.2854 -8.76346e-07 67.4967 -1.31161e-06 3.08361 -2.77331 -0.0746997 -20.0877 11.7699 6.09343e-05 -49.7137 -31.1122 33.4212 180 -67.4884 -180 4.60434 -2.82246 -0.113499 -0.16027 25.8001 -5.60588 5.57932 -2.88275 -32.4961 -0 -0 13.6734 -1.65644e-05 4.29533 11.8726 0.885306 3.91445e-07 -58.3354 -2.43452 -27.1736 2.81458 -0 -0 19.0306 2.05129e-05 -5.49998 18.5621 -1.75576 -5.72683e-06 -12.5826 
31.384 84.864 -11.469 -169.286 20.1753 -154.51 0 -0 0 18.8092 -15.9968 -13.529 25.2417 -14.0787 0.000102303 47.9945 -19.0156 -19.1311 -6.12591e-07 67.2868 -9.20485e-07 2.77874 -2.39226 -0.0579998 -20.3594 11.8089 0.000135246 -47.9272 -29.9223 31.5097 180 -65.8766 -180 4.45479 -2.84289 -0.110599 -0.977973 25.7569 -5.32406 5.41982 -2.26054 -32.5439 -0 -0 15.5311 5.0623e-06 4.10182 10.6847 0.761794 -3.9345e-06 -55.6325 -2.52137 -25.2031 3.19045 -0 -0 20.0861 2.9012e-06 -6.03084 19.4829 -2.01805 5.47862e-06 -16.6283 
32.023 84.561 -12.47 -169.346 19.9807 -154.818 0 -0 0 19.0983 -15.7086 -13.7157 25.4071 -13.9767 6.68175e-05 47.5206 -18.4573 -18.8608 -6.05096e-07 67.0638 -9.131e-07 2.44845 -1.94977 -0.0416983 -20.6705 11.8522 -4.74669e-06 -46.1029 -28.5904 29.5372 -180 -64.4353 180 4.2428 -2.85191 -0.105697 -1.92181 25.7321 -5.10531 5.21107 -1.64235 -32.6264 -0 -0 17.7349 -9.73636e-07 3.77273 9.17719 0.602608 -2.72728e-07 -52.7037 -2.59935 -23.0238 3.45813 -0 -0 21.2886 2.30242e-05 -6.60231 20.6135 -2.33353 2.20841e-06 -20.8301 
32.638 84.258 -13.485 -169.423 19.8548 -155.151 0 -0 0 19.3495 -15.3893 -13.8376 25.6044 -13.8604 3.31111e-05 46.9904 -17.8072 -18.4728 -9.05181e-07 66.8165 -5.97042e-07 2.07 -1.45088 -0.0261994 -21.0089 11.9079 0.000111791 -44.2817 -27.1301 27.5454 180 -63.1885 -180 3.9832 -2.84916 -0.0990983 -2.97426 25.7281 -4.95838 4.97875 -1.06911 -32.6972 -0 -0 20.1455 -2.45314e-06 3.36594 7.44894 0.436904 8.18184e-08 -49.791 -2.66656 -20.6608 3.61978 -0 -0 22.6458 -9.39181e-06 -7.16594 21.8985 -2.68468 -5.93355e-07 -24.6382 
33.229 83.96 -14.51 -169.51 19.7802 -155.507 0 -0 0 19.5704 -15.0511 -13.8908 25.8392 -13.7247 -7.70285e-05 46.4118 -17.0611 -17.9698 -8.96437e-07 66.5364 -5.8814e-07 1.6266 -0.9069 -0.0128999 -21.3683 11.9875 0.000129167 -42.5003 -25.5599 25.5839 -180 -62.1728 180 3.69725 -2.83552 -0.0915026 -4.116 25.7416 -4.88864 4.74724 -0.556057 -32.7061 -0 -0 22.598 2.27258e-06 2.91328 5.62005 0.285497 4.49921e-07 -47.1635 -2.70779 -18.1558 3.67137 -0 -0 24.1696 7.42653e-05 -7.65581 23.276 -3.04056 1.99706e-05 -27.6154 
33.799 83.676 -15.541 -169.601 19.7429 -155.881 0 -0 0 19.7718 -14.7042 -13.8746 26.107 -13.5675 8.62416e-05 45.8011 -16.2152 -17.3638 -0 66.2199 -0 1.1142 -0.332003 -0.00320003 -21.7431 12.096 0.000110145 -40.7825 -23.9028 23.693 -180 -61.4078 180 3.4107 -2.81193 -0.0837002 -5.32595 25.7717 -4.89852 4.53738 -0.114406 -32.6116 -0 -0 24.9469 -5.40684e-08 2.443 3.79722 0.1619 -1.62505e-06 -45.0585 -2.71621 -15.5756 3.61694 -0 -0 25.846 -2.35273e-05 -7.97423 24.7463 -3.3558 7.17687e-06 -30.1322 
34.35 83.415 -16.571 -169.683 19.7197 -156.26 0 -0 0 19.9668 -14.3562 -13.7968 26.4065 -13.3885 -0.000195792 45.1761 -15.2686 -16.67 -0 65.8638 -0 0.538592 0.256706 0.00119999 -22.1279 12.2377 -2.76727e-05 -39.1516 -22.1825 21.9167 180 -60.9117 -180 3.15145 -2.77819 -0.0763981 -6.58176 25.8113 -4.98568 4.36887 0.258396 -32.386 -0 -0 27.0641 -4.74653e-07 1.96681 2.07074 0.0710995 -4.28572e-08 -43.6297 -2.67301 -12.9749 3.44439 -0 -0 27.6787 -6.42187e-05 -8.04253 26.2138 -3.57139 1.86945e-06 -31.9723 
34.884 83.184 -17.594 -169.749 19.689 -156.629 0 -0 0 20.1704 -14.0135 -13.6757 26.7307 -13.1865 0.000154339 44.5605 -14.229 -15.907 -0 65.4697 -0 -0.085801 0.839503 -0.000600024 -22.5214 12.4153 7.19847e-05 -37.6187 -20.4377 20.2944 180 -60.7058 180 2.94789 -2.73304 -0.0702988 -7.85811 25.8523 -5.14167 4.25586 0.566588 -32.0191 -0 -0 28.8596 2.39508e-07 1.49205 0.502797 0.0130998 -8.5098e-08 -42.9237 -2.56496 -10.4118 3.13718 -0 -0 29.6701 -2.94211e-05 -7.79254 27.577 -3.62511 -1.43979e-05 -33.0689 
35.404 82.987 -18.604 -169.801 19.6306 -156.98 0 -0 0 20.3767 -13.6832 -13.5243 27.0744 -12.9682 -0.000193577 43.9802 -13.1101 -15.0992 -5.44097e-07 65.0487 -8.53255e-07 -0.732614 1.39974 -0.00890049 -22.9121 12.6272 1.14686e-05 -36.1979 -18.6993 18.8611 180 -60.798 -180 2.82456 -2.67238 -0.0659016 -9.12732 25.8836 -5.35549 4.20133 0.804325 -31.5108 -0 -0 30.2895 -4.96148e-08 1.03369 -0.877804 -0.0158001 -1.10294e-08 -42.8583 -2.40022 -7.9543 2.69064 -0 -0 31.8085 -9.28812e-06 -7.16694 28.7571 -3.46198 -8.57741e-06 -33.626 
35.907 82.827 -19.598 -169.849 19.5286 -157.311 0 -0 0 20.573 -13.3674 -13.3596 27.4275 -12.7358 9.92715e-05 43.4684 -11.9273 -14.2702 -7.52429e-07 64.6093 -1.19002e-06 -1.37169 1.92246 -0.0230005 -23.2893 12.8677 -6.60887e-05 -34.8974 -17.004 17.6424 -180 -61.1912 180 2.80083 -2.59083 -0.0632987 -10.3599 25.8923 -5.61202 4.19775 0.965399 -30.8715 -0 -0 31.3397 7.17532e-08 0.602299 -2.0627 -0.0217003 1.74729e-08 -43.2665 -2.19482 -5.66168 2.09774 -0 -0 34.0801 9.60536e-06 -6.14704 29.6633 -3.05104 -7.91839e-06 -33.7784 
36.394 82.705 -20.575 -169.907 19.3677 -157.622 0 -0 0 20.7407 -13.0688 -13.1903 27.7808 -12.4984 -0.000109756 43.0599 -10.7015 -13.4475 -0 64.1614 -0 -1.96734 2.39867 -0.0412008 -23.6371 13.1197 -4.02177e-06 -33.7232 -15.3725 16.6503 -180 -61.8708 180 2.88705 -2.48135 -0.0624974 -11.5304 25.8662 -5.89502 4.23191 1.0456 -30.1116 -0 -0 32.0217 1.17855e-07 0.204997 -3.05826 -0.0108999 4.89363e-08 -43.931 -1.97024 -3.5805 1.36145 -0 -0 36.4651 -7.6909e-05 -4.75681 30.2141 -2.39787 2.62371e-05 -33.6516 
36.862 82.619 -21.534 -169.996 19.134 -157.916 0 -0 0 20.8525 -12.7867 -13.0346 28.1272 -12.262 0.000154547 42.7727 -9.45822 -12.6444 -0 63.7317 -0 -2.49415 2.81925 -0.0614002 -23.9427 13.3808 0.000171481 -32.6745 -13.848 15.8937 -180 -62.8369 180 3.0863 -2.33974 -0.0630008 -12.6137 25.79 -6.18673 4.27948 1.03829 -29.2554 -0 -0 32.3725 -7.17851e-08 -0.153401 -3.87882 0.0104001 5.846e-08 -44.6444 -1.75634 -1.75002 0.476599 -0 -0 38.9393 6.21372e-06 -3.06044 30.3493 -1.54753 -1.44569e-05 -33.3338 
37.308 82.567 -22.476 -170.127 18.8227 -158.197 0 -0 0 20.8882 -12.5182 -12.8983 28.4549 -12.0342 -2.8334e-05 42.6349 -8.22131 -11.8787 -0 63.3323 -0 -2.92624 3.18307 -0.0812973 -24.1968 13.629 0.000101806 -31.75 -12.4408 15.3615 -180 -64.0562 180 3.38865 -2.16312 -0.0640022 -13.5924 25.653 -6.47186 4.31887 0.944502 -28.319 -0 -0 32.4354 -3.29194e-07 -0.474899 -4.54049 0.0376001 -5.78458e-07 -45.2382 -1.57699 -0.189096 -0.549605 -0 -0 41.4763 -1.13917e-06 -1.1568 30.0375 -0.579101 2.58312e-06 -32.8696 
37.73 82.545 -23.402 -170.321 18.4306 -158.468 0 -0 0 20.8258 -12.2558 -12.788 28.7535 -11.8189 -9.79116e-05 42.6553 -7.01468 -11.1558 -0 62.9837 -0 -3.25092 3.49061 -0.0991019 -24.3914 13.8501 0.000136683 -30.9443 -11.1608 15.0355 180 -65.5054 -180 3.77517 -1.95293 -0.0644025 -14.4569 25.4435 -6.7372 4.32576 0.766319 -27.3246 -0 -0 32.2671 -8.45359e-07 -0.762792 -5.05942 0.0672991 -2.88324e-07 -45.619 -1.45693 1.09439 -1.71154 -0 -0 44.0384 -5.93394e-06 0.841197 29.277 0.411399 3.19607e-06 -32.2768 
38.123 82.551 -24.316 -170.589 17.9607 -158.73 0 -0 0 20.6444 -11.9883 -12.7096 29.0161 -11.6211 -1.46061e-05 42.833 -5.85534 -10.4716 -0 62.7005 -0 -3.46731 3.74381 -0.113401 -24.5255 14.0238 -5.62507e-05 -30.2497 -10.0026 14.8858 180 -67.141 -180 4.2174 -1.71434 -0.0631016 -15.2012 25.1542 -6.97201 4.2742 0.502022 -26.2986 -0 -0 31.9337 6.53764e-07 -1.0147 -5.4528 0.0963989 8.34112e-08 -45.7641 -1.42333 2.10225 -3.00093 -0 -0 46.5924 -1.85865e-06 2.82679 28.0995 1.33223 3.51773e-06 -31.5425 
38.489 82.582 -25.218 -170.929 17.4185 -158.986 0 -0 0 20.348 -11.7086 -12.6552 29.2355 -11.4401 1.08849e-06 43.1563 -4.75916 -9.81268 -0 62.4991 -0 -3.58072 3.94963 -0.123501 -24.6112 14.1643 1.19237e-05 -29.6501 -9.00311 14.8874 180 -68.9401 180 4.68471 -1.45665 -0.0596038 -15.832 24.7823 -7.17469 4.15856 0.171606 -25.2537 -0 -0 31.4819 -1.08841e-06 -1.24386 -5.72958 0.1242 6.97015e-07 -45.7073 -1.47475 2.85766 -4.40299 -0 -0 49.0974 3.70072e-06 4.69995 26.5594 2.10529 -1.56612e-06 -30.6724 
